{
  "accessors": [
    {
      "bufferView": 2,
      "componentType": 5126,
      "count": 1612,
      "max": [
        8.103907585144043,
        6.2003812789916992,
        1.8666678667068481
      ],
      "min": [
        -1.1061103343963623,
        0.099703490734100342,
        -5.4881362915039062
      ],
      "type": "VEC3"
    },
    {
      "bufferView": 2,
      "byteOffset": 19344,
      "componentType": 5126,
      "count": 1612,
      "max": [
        0.99329239130020142,
        0.998707115650177,
        1
      ],
      "min": [
        -0.99847996234893799,
        -0.99996507167816162,
        -1
      ],
      "type": "VEC3"
    },
    {
      "bufferView": 1,
      "componentType": 5126,
      "count": 1612,
      "max": [
        0.98803585767745972,
        0.99165594577789307
      ],
      "min": [
        0.016234163194894791,
        0.18734322488307953
      ],
      "type": "VEC2"
    },
    {
      "bufferView": 0,
      "componentType": 5125,
      "count": 2448,
      "max": [
        1611
      ],
      "min": [
        0
      ],
      "type": "SCALAR"
    },
    {
      "bufferView": 2,
      "byteOffset": 38688,
      "componentType": 5126,
      "count": 678,
      "max": [
        5.8508076667785645,
        5.4176936149597168,
        0.86020934581756592
      ],
      "min": [
        -3.7830204963684082,
        3.6446952819824219,
        -4.4307894706726074
      ],
      "type": "VEC3"
    },
    {
      "bufferView": 2,
      "byteOffset": 46824,
      "componentType": 5126,
      "count": 678,
      "max": [
        1,
        0.96971827745437622,
        1
      ],
      "min": [
        -1,
        -0.98676681518554688,
        -0.9748222827911377
      ],
      "type": "VEC3"
    },
    {
      "bufferView": 1,
      "byteOffset": 12896,
      "componentType": 5126,
      "count": 678,
      "max": [
        0.82647979259490967,
        0.70812320709228516
      ],
      "min": [
        0.41978311538696289,
        0.15813471376895905
      ],
      "type": "VEC2"
    },
    {
      "bufferView": 0,
      "byteOffset": 9792,
      "componentType": 5125,
      "count": 1008,
      "max": [
        677
      ],
      "min": [
        0
      ],
      "type": "SCALAR"
    },
    {
      "bufferView": 2,
      "byteOffset": 54960,
      "componentType": 5126,
      "count": 606,
      "max": [
        7.1204662322998047,
        3.0529563426971436,
        1.8483154773712158
      ],
      "min": [
        -1.7331948280334473,
        -0.32049274444580078,
        -5.398068904876709
      ],
      "type": "VEC3"
    },
    {
      "bufferView": 2,
      "byteOffset": 62232,
      "componentType": 5126,
      "count": 606,
      "max": [
        0.9101831316947937,
        0.92540937662124634,
        0.99947720766067505
      ],
      "min": [
        -0.91018259525299072,
        -0.92540931701660156,
        -0.99947720766067505
      ],
      "type": "VEC3"
    },
    {
      "bufferView": 1,
      "byteOffset": 18320,
      "componentType": 5126,
      "count": 606,
      "max": [
        0.96731352806091309,
        0.29506760835647583
      ],
      "min": [
        0.04296383261680603,
        0.0051052137278020382
      ],
      "type": "VEC2"
    },
    {
      "bufferView": 0,
      "byteOffset": 13824,
      "componentType": 5125,
      "count": 912,
      "max": [
        605
      ],
      "min": [
        0
      ],
      "type": "SCALAR"
    },
    {
      "bufferView": 2,
      "byteOffset": 69504,
      "componentType": 5126,
      "count": 102,
      "max": [
        -1.1670840978622437,
        6.1828079223632812,
        -0.7430301308631897
      ],
      "min": [
        -3.4578924179077148,
        4.0242710113525391,
        -3.1676287651062012
      ],
      "type": "VEC3"
    },
    {
      "bufferView": 2,
      "byteOffset": 70728,
      "componentType": 5126,
      "count": 102,
      "max": [
        0.92503368854522705,
        0.92260217666625977,
        0.91820454597473145
      ],
      "min": [
        -0.89790970087051392,
        -0.94887948036193848,
        -0.91891872882843018
      ],
      "type": "VEC3"
    },
    {
      "bufferView": 1,
      "byteOffset": 23168,
      "componentType": 5126,
      "count": 102,
      "max": [
        0.98801791667938232,
        0.38544794917106628
      ],
      "min": [
        0.67346370220184326,
        0.164195716381073
      ],
      "type": "VEC2"
    },
    {
      "bufferView": 0,
      "byteOffset": 17472,
      "componentType": 5125,
      "count": 156,
      "max": [
        101
      ],
      "min": [
        0
      ],
      "type": "SCALAR"
    }
  ],
  "asset": {
    "extras": {
      "author": "Bargas (https://sketchfab.com/Bargas)",
      "license": "CC-BY-4.0 (http://creativecommons.org/licenses/by/4.0/)",
      "source": "https://sketchfab.com/3d-models/catapult-e17567b2443d470ab96ace279eaeb04f",
      "title": "Catapult"
    },
    "generator": "Sketchfab-8.45.0",
    "version": "2.0"
  },
  "bufferViews": [
    {
      "buffer": 0,
      "byteLength": 18096,
      "byteOffset": 0,
      "name": "floatBufferViews",
      "target": 34963
    },
    {
      "buffer": 0,
      "byteLength": 23984,
      "byteOffset": 18096,
      "byteStride": 8,
      "name": "floatBufferViews",
      "target": 34962
    },
    {
      "buffer": 0,
      "byteLength": 71952,
      "byteOffset": 42080,
      "byteStride": 12,
      "name": "floatBufferViews",
      "target": 34962
    }
  ],
  "buffers": [
    {
      "byteLength": 114032,
      "uri": "scene.bin"
    }
  ],
  "images": [
    {
      "uri": "textures/Material.001_baseColor.png"
    }
  ],
  "materials": [
    {
      "doubleSided": true,
      "emissiveFactor": [
        0,
        0,
        0
      ],
      "name": "Material.001",
      "pbrMetallicRoughness": {
        "baseColorFactor": [
          1,
          1,
          1,
          1
        ],
        "baseColorTexture": {
          "index": 0,
          "texCoord": 0
        },
        "metallicFactor": 0,
        "roughnessFactor": 0.5
      }
    },
    {
      "doubleSided": true,
      "emissiveFactor": [
        0,
        0,
        0
      ],
      "name": "Metalix",
      "pbrMetallicRoughness": {
        "baseColorFactor": [
          1,
          1,
          1,
          1
        ],
        "baseColorTexture": {
          "index": 0,
          "texCoord": 0
        },
        "metallicFactor": 0.97272700000000001,
        "roughnessFactor": 0.17727299999999999
      }
    },
    {
      "doubleSided": true,
      "emissiveFactor": [
        0,
        0,
        0
      ],
      "name": "WoodWheels",
      "pbrMetallicRoughness": {
        "baseColorFactor": [
          1,
          1,
          1,
          1
        ],
        "baseColorTexture": {
          "index": 0,
          "texCoord": 0
        },
        "metallicFactor": 0,
        "roughnessFactor": 1
      }
    },
    {
      "doubleSided": true,
      "emissiveFactor": [
        0,
        0,
        0
      ],
      "name": "Rock",
      "pbrMetallicRoughness": {
        "baseColorFactor": [
          1,
          1,
          1,
          1
        ],
        "baseColorTexture": {
          "index": 0,
          "texCoord": 0
        },
        "metallicFactor": 0,
        "roughnessFactor": 1
      }
    }
  ],
  "meshes": [
    {
      "primitives": [
        {
          "attributes": {
            "NORMAL": 1,
            "POSITION": 0,
            "TEXCOORD_0": 2
          },
          "indices": 3,
          "material": 0,
          "mode": 4
        }
      ]
    },
    {
      "primitives": [
        {
          "attributes": {
            "NORMAL": 5,
            "POSITION": 4,
            "TEXCOORD_0": 6
          },
          "indices": 7,
          "material": 1,
          "mode": 4
        }
      ]
    },
    {
      "primitives": [
        {
          "attributes": {
            "NORMAL": 9,
            "POSITION": 8,
            "TEXCOORD_0": 10
          },
          "indices": 11,
          "material": 2,
          "mode": 4
        }
      ]
    },
    {
      "primitives": [
        {
          "attributes": {
            "NORMAL": 13,
            "POSITION": 12,
            "TEXCOORD_0": 14
          },
          "indices": 15,
          "material": 3,
          "mode": 4
        }
      ]
    }
  ],
  "nodes": [
    {
      "children": [
        1
      ],
      "name": "RootNode (gltf orientation matrix)",
      "rotation": [
        -0.70710678118654746,
        -0,
        -0,
        0.70710678118654757
      ]
    },
    {
      "children": [
        2
      ],
      "name": "RootNode (model correction matrix)"
    },
    {
      "children": [
        3
      ],
      "name": "root"
    },
    {
      "children": [
        4
      ],
      "matrix": [
        1,
        0,
        0,
        0,
        0,
        2.2204460492503131e-16,
        1,
        0,
        0,
        -1,
        2.2204460492503131e-16,
        0,
        0,
        0,
        0,
        1
      ],
      "name": "GLTF_SceneRootNode"
    },
    {
      "children": [
        5,
        6,
        7,
        8
      ],
      "name": "Catapult Cartoon_0"
    },
    {
      "mesh": 0,
      "name": ""
    },
    {
      "mesh": 1,
      "name": ""
    },
    {
      "mesh": 2,
      "name": ""
    },
    {
      "mesh": 3,
      "name": ""
    }
  ],
  "samplers": [
    {
      "magFilter": 9729,
      "minFilter": 9987,
      "wrapS": 10497,
      "wrapT": 10497
    }
  ],
  "scene": 0,
  "scenes": [
    {
      "name": "OSG_Scene",
      "nodes": [
        0
      ]
    }
  ],
  "textures": [
    {
      "sampler": 0,
      "source": 0
    }
  ]
}

